<svg width="500" height="500" viewBox="0 0 500 500" fill="none" xmlns="http://www.w3.org/2000/svg">
<rect width="500" height="500" fill="white"/>
<path fill-rule="evenodd" clip-rule="evenodd" d="M148.553 202.965C150.226 200.486 153.022 199 156.012 199H197.512C202.483 199 206.512 203.029 206.512 208C206.512 212.971 202.483 217 197.512 217H160.796L138.858 249.5L160.796 282H197.512C202.483 282 206.512 286.029 206.512 291C206.512 295.971 202.483 300 197.512 300H156.012C153.022 300 150.226 298.514 148.553 296.035L120.54 254.535C118.487 251.493 118.487 247.507 120.54 244.465L148.553 202.965Z" fill="#2797FF"/>
<path fill-rule="evenodd" clip-rule="evenodd" d="M340.578 202.965C342.251 200.486 345.047 199 348.037 199H389.537C394.508 199 398.537 203.029 398.537 208C398.537 212.971 394.508 217 389.537 217H352.821L330.883 249.5L352.821 282H383.975L395.725 258.5H377.087C372.117 258.5 368.087 254.471 368.087 249.5C368.087 244.529 372.117 240.5 377.087 240.5H410.287C413.407 240.5 416.303 242.115 417.943 244.768C419.583 247.422 419.732 250.735 418.337 253.525L397.587 295.025C396.063 298.074 392.946 300 389.537 300H348.037C345.047 300 342.251 298.514 340.578 296.035L312.565 254.535C310.511 251.493 310.511 247.507 312.565 244.465L340.578 202.965Z" fill="#2797FF"/>
<path fill-rule="evenodd" clip-rule="evenodd" d="M233.412 202.6C235.112 200.334 237.779 199 240.612 199H292.487C297.458 199 301.487 203.029 301.487 208C301.487 212.971 297.458 217 292.487 217H245.112L236.3 228.75L245.112 240.5H282.112C285.521 240.5 288.638 242.426 290.162 245.475L300.537 266.225C301.804 268.759 301.804 271.741 300.537 274.275L290.162 295.025C288.638 298.074 285.521 300 282.112 300H225.05C220.079 300 216.05 295.971 216.05 291C216.05 286.029 220.079 282 225.05 282H276.55L282.425 270.25L276.55 258.5H240.612C237.779 258.5 235.112 257.166 233.412 254.9L217.85 234.15C215.45 230.95 215.45 226.55 217.85 223.35L233.412 202.6Z" fill="#2797FF"/>
<path fill-rule="evenodd" clip-rule="evenodd" d="M70 255C65.0293 255 61 259.029 61 264C61 268.971 65.0293 273 70 273H95H104.5H124.169L112 255H104.5H95H70Z" fill="#1D2D83"/>
<path fill-rule="evenodd" clip-rule="evenodd" d="M96 282C91.0294 282 87 286.029 87 291C87 295.971 91.0294 300 96 300H113H122.5H142.169L130 282H122.5H113H96Z" fill="#1D2D83"/>
<path fill-rule="evenodd" clip-rule="evenodd" d="M113.013 199C108.042 199 104.013 203.029 104.013 208C104.013 212.971 108.042 217 113.013 217H122H124.513H129.83L142 199H124.513H121H113.013Z" fill="#1D2D83"/>
<path fill-rule="evenodd" clip-rule="evenodd" d="M89 227C84.0293 227 80 231.029 80 236C80 240.971 84.0293 245 89 245H94H105.5H111L123.169 227H105.5H94H89Z" fill="#1D2D83"/>
</svg>
